Coordinates
version=1
nRows=8
nColumns=40
inDegrees=yes

Units are S.I. units (second, meters, Newtons, ...)
Angles are in degrees.

endheader
time	pelvis_tilt	pelvis_list	pelvis_rotation	pelvis_tx	pelvis_ty	pelvis_tz	hip_flexion_r	hip_adduction_r	hip_rotation_r	knee_angle_r	knee_angle_r_beta	ankle_angle_r	subtalar_angle_r	mtp_angle_r	hip_flexion_l	hip_adduction_l	hip_rotation_l	knee_angle_l	knee_angle_l_beta	ankle_angle_l	subtalar_angle_l	mtp_angle_l	lumbar_extension	lumbar_bending	lumbar_rotation	arm_flex_r	arm_add_r	arm_rot_r	elbow_flex_r	pro_sup_r	wrist_flex_r	wrist_dev_r	arm_flex_l	arm_add_l	arm_rot_l	elbow_flex_l	pro_sup_l	wrist_flex_l	wrist_dev_l
      9.22342857	     -5.74004622	     -4.15768122	     -3.18920361	      0.75226415	      0.93230049	      0.42879510	     33.74266723	     -4.04741325	     -6.70334251	     57.23373931	     57.23373931	      0.05811895	    -14.58392007	     -0.52958190	     12.64974902	     -3.46276067	     -8.63261539	     19.07571395	     19.07571395	     14.33054487	    -10.11302004	      1.22624373	    -10.49303119	      6.82877041	      1.80645331	     -3.13418915	    -12.83096504	     -0.58628132	     28.77728580	     46.32480278	      0.00000000	      0.00000000	     14.18480295	    -19.64843262	    -12.50442018	     70.50956718	     47.54419615	      0.00000000	      0.00000000
      9.23685714	     -5.96244754	     -4.18356399	     -3.40182830	      0.75093932	      0.93251102	      0.42895236	     34.21960815	     -3.78893084	     -7.14691915	     53.98124687	     53.98124687	      0.36877609	    -14.00162835	     -0.34206666	     12.06360097	     -3.45418607	     -8.87671329	     18.30566536	     18.30566536	     14.43717378	     -9.80930334	      1.16980537	    -10.31067871	      6.89467737	      1.46756714	     -4.39913657	    -12.86314395	     -0.57267117	     28.40679248	     46.32654190	      0.00000000	      0.00000000	     15.04671788	    -20.21139389	    -12.81809245	     71.12534657	     47.58195385	      0.00000000	      0.00000000
      9.25028571	     -6.04252699	     -4.20198591	     -3.62528543	      0.74982014	      0.93281274	      0.42918826	     34.29262750	     -3.52517270	     -7.62348177	     50.26122239	     50.26122239	      0.64535087	    -13.22477900	     -0.22832833	     11.23744516	     -3.43981481	     -9.26663349	     17.40020274	     17.40020274	     14.49126245	     -9.31879865	      0.98789996	    -10.30291656	      6.93817285	      1.33130814	     -5.70420727	    -12.96206320	     -0.62690517	     28.15148878	     46.32745515	      0.00000000	      0.00000000	     15.91620982	    -20.50646077	    -13.13152684	     72.03776874	     47.62486816	      0.00000000	      0.00000000
      9.26371429	     -6.14095048	     -4.16169895	     -3.84328572	      0.74871163	      0.93281210	      0.42955717	     34.23163537	     -3.28238999	     -8.07181215	     46.24563042	     46.24563042	      0.89000594	    -12.24341714	     -0.19631383	     10.49255727	     -3.38231780	     -9.68428891	     16.61047684	     16.61047684	     14.56189684	     -8.78719907	      0.62315984	    -10.28053112	      6.86904566	      1.20186486	     -6.97635299	    -13.04294920	     -0.77169214	     28.06374365	     46.32780660	      0.00000000	      0.00000000	     16.73676552	    -20.80238670	    -13.45381101	     73.00150565	     47.66936320	      0.00000000	      0.00000000
      9.27714286	     -6.25395342	     -4.11169001	     -4.03114879	      0.74771248	      0.93257924	      0.42998879	     33.97931701	     -3.03409840	     -8.57913853	     41.92367823	     41.92367823	      1.09529803	    -11.00065636	     -0.15279332	      9.80018509	     -3.32249883	    -10.10508663	     15.89268336	     15.89268336	     14.62381486	     -8.23995451	      0.16230553	    -10.21447369	      6.81709572	      1.03981663	     -8.18439053	    -13.10181571	     -0.98768649	     28.08210133	     46.32935105	      0.00000000	      0.00000000	     17.48870174	    -21.09787375	    -13.74655090	     73.91726356	     47.71046937	      0.00000000	      0.00000000
      9.29057143	     -6.41106614	     -4.00784046	     -4.19709014	      0.74678958	      0.93200221	      0.43055348	     33.63891998	     -2.78783324	     -9.03612472	     37.45412747	     37.45412747	      1.30076294	     -9.52404111	      0.01933475	      9.20775568	     -3.21394047	    -10.48872225	     15.27943308	     15.27943308	     14.75696919	     -7.74609383	     -0.32613782	    -10.06238214	      6.70482213	      0.85518941	     -9.24729816	    -13.09594462	     -1.20956308	     28.12409899	     46.33191637	      0.00000000	      0.00000000	     18.19845819	    -21.42673580	    -13.99339778	     74.69914230	     47.74534397	      0.00000000	      0.00000000
      9.30400000	     -6.38452153	     -3.86074870	     -4.33846634	      0.74615265	      0.93148187	      0.43117740	     32.91936768	     -2.61203976	     -9.64785509	     32.84949967	     32.84949967	      1.42006825	     -7.53591467	      0.16008210	      8.39172691	     -3.05861083	    -11.00027206	     14.64165441	     14.64165441	     14.83605607	     -7.07205241	     -1.07815746	    -10.15220537	      6.51255828	      0.76571454	    -10.31342994	    -13.13458420	     -1.59620816	     28.32743015	     46.33875172	      0.00000000	      0.00000000	     18.84983544	    -21.59872765	    -14.21036100	     75.56726561	     47.78011844	      0.00000000	      0.00000000
      9.31742857	     -6.44863921	     -3.68532415	     -4.44940263	      0.74572776	      0.93054307	      0.43191871	     32.21768636	     -2.40061176	    -10.17930937	     28.34244866	     28.34244866	      1.52950248	     -5.50729089	      0.61907637	      7.72633620	     -2.87656586	    -11.38581432	     14.12183286	     14.12183286	     14.98428990	     -6.54653897	     -1.76401737	    -10.01071979	      6.32751581	      0.60411869	    -11.19000220	    -13.08405539	     -1.93731156	     28.45634744	     46.34758254	      0.00000000	      0.00000000	     19.43599281	    -21.78307486	    -14.34386530	     76.20925542	     47.80746547	      0.00000000	      0.00000000
